<svg version="1.1" id="Layer_1" xmlns="http://www.w3.org/2000/svg" xmlns:xlink="http://www.w3.org/1999/xlink" x="0px" y="0px"
	 width="100%" viewBox="0 0 1302 858" enable-background="new 0 0 1302 858" xml:space="preserve">
<path fill="#FFFFFF" opacity="1.000000" stroke="none" 
	d="
M1230.000000,859.000000 
	C820.047302,859.000000 410.594604,859.000000 1.070954,859.000000 
	C1.070954,573.080383 1.070954,287.160675 1.070954,1.120510 
	C434.999969,1.120510 869.000000,1.120510 1302.997681,1.114517 
	C1302.995361,287.072357 1302.995361,573.036194 1302.992920,859.000000 
	C1278.827026,859.000000 1254.663574,859.000000 1230.000000,859.000000 
M775.900513,394.299561 
	C764.559509,399.520447 758.694031,408.760468 757.428406,420.803070 
	C754.717896,446.593781 774.410767,463.216461 796.317383,457.911438 
	C800.664612,456.858704 804.671997,454.402985 808.806274,452.607208 
	C808.954224,454.013550 809.123535,455.622437 809.300354,457.302979 
	C814.931274,457.302979 820.350952,457.302979 826.027222,457.302979 
	C826.027222,435.796387 826.027222,414.565857 826.027222,393.319458 
	C820.281799,393.319458 814.722473,393.319458 809.137146,393.319458 
	C809.023193,395.237396 808.928406,396.832581 808.806763,398.880035 
	C798.771729,390.779480 787.996643,390.208801 775.900513,394.299561 
M1024.152466,401.645020 
	C1014.151489,410.830231 1012.933777,422.480743 1015.580688,434.759247 
	C1019.791870,454.294067 1045.302368,465.229767 1064.840088,456.185669 
	C1070.609741,453.514832 1075.627563,449.925262 1079.258789,444.115967 
	C1075.527954,441.927307 1072.210693,439.674072 1068.614624,438.030487 
	C1067.271729,437.416687 1065.157959,437.889771 1063.605591,438.449432 
	C1059.328125,439.991608 1055.252930,442.979553 1050.931641,443.326416 
	C1042.609253,443.994415 1032.772095,440.684265 1032.459106,432.005707 
	C1040.747192,432.005707 1049.025269,432.005707 1057.303467,432.005707 
	C1065.723145,432.005707 1074.142822,432.005707 1082.658691,432.005707 
	C1083.377930,423.701172 1083.099487,416.326691 1079.411255,409.429199 
	C1069.101318,390.148682 1043.063232,386.212952 1024.152466,401.645020 
M921.383728,441.017822 
	C927.802429,425.232727 934.221069,409.447662 940.851196,393.142609 
	C936.053284,393.142609 932.012451,393.575012 928.103088,393.042786 
	C922.007507,392.212921 919.516479,394.758972 917.744507,400.458801 
	C914.317200,411.482513 909.926636,422.206757 905.676270,433.759186 
	C904.837769,431.907928 904.320801,430.879730 903.897522,429.814301 
	C899.542847,418.855194 895.280457,407.858093 890.771301,396.963135 
	C890.140503,395.438934 888.389282,393.416656 887.036133,393.320404 
	C881.317505,392.913574 875.553345,393.148071 869.343689,393.148071 
	C870.022644,394.979828 870.409729,396.228394 870.936584,397.414886 
	C878.755920,415.024841 886.488770,432.674652 894.512634,450.191101 
	C896.190002,453.852814 896.270691,456.855164 894.578613,460.491821 
	C891.400818,467.321442 888.707336,474.376465 885.596985,481.856018 
	C891.325989,481.856018 896.155151,481.667053 900.960266,481.925232 
	C903.955444,482.086151 905.298157,481.009216 906.378662,478.236481 
	C911.142212,466.011993 916.169861,453.890442 921.383728,441.017822 
M677.107971,398.670074 
	C677.099548,408.824921 677.136475,418.980133 677.045837,429.134247 
	C677.026794,431.268066 676.811218,433.477539 676.215271,435.514343 
	C674.402283,441.709991 669.498169,444.714905 662.804810,444.004639 
	C656.381775,443.323090 652.934814,440.043762 652.662170,433.208313 
	C652.290955,423.900818 652.476196,414.570923 652.435364,405.250580 
	C652.418030,401.305725 652.432495,397.360748 652.432495,393.485657 
	C646.212158,393.485657 640.654968,393.485657 635.085449,393.485657 
	C635.085449,408.458771 634.808228,423.095123 635.269287,437.708130 
	C635.393372,441.641296 637.102112,445.913391 639.221252,449.322632 
	C645.917908,460.096375 662.969360,462.127380 674.853821,453.993469 
	C675.366150,453.642822 675.934204,453.373535 676.667114,452.958191 
	C677.014038,454.621368 677.297363,455.979553 677.545654,457.169861 
	C683.468994,457.169861 689.029663,457.169861 694.507202,457.169861 
	C694.507202,435.684113 694.507202,414.620148 694.507202,393.477234 
	C688.608826,393.477234 683.050842,393.477234 677.311707,393.477234 
	C677.234253,395.106415 677.172241,396.411469 677.107971,398.670074 
M479.071655,448.279114 
	C482.532562,454.447601 488.136047,457.328949 494.831543,458.471436 
	C503.292267,459.915100 510.894501,457.849792 517.683533,452.488708 
	C517.934814,454.273468 518.153198,455.824493 518.360413,457.296326 
	C524.143921,457.296326 529.574463,457.296326 535.148682,457.296326 
	C535.148682,435.800873 535.148682,414.607025 535.148682,393.390259 
	C529.322327,393.390259 523.886475,393.390259 517.952820,393.390259 
	C517.952820,404.910645 518.033691,416.190887 517.898010,427.468536 
	C517.862488,430.424713 517.548584,433.495667 516.673401,436.298767 
	C514.887451,442.018707 509.709015,444.768097 503.181702,443.974548 
	C497.357056,443.266449 493.857849,439.956024 493.346344,433.881287 
	C492.928375,428.917572 493.103760,423.900787 493.085052,418.907257 
	C493.053467,410.467621 493.076385,402.027771 493.076385,393.455444 
	C486.953857,393.455444 481.402008,393.455444 475.696899,393.455444 
	C475.696899,407.546814 475.463867,421.334381 475.837433,435.105499 
	C475.951050,439.294373 477.737610,443.437866 479.071655,448.279114 
M966.500549,393.136261 
	C960.244019,393.136261 953.987488,393.136261 947.662109,393.136261 
	C947.662109,398.619965 947.662109,403.361572 947.662109,408.723877 
	C957.482361,408.723877 966.996338,408.723877 977.393311,408.723877 
	C965.586548,425.304321 954.378357,441.044220 942.765442,457.352539 
	C964.002991,457.352539 984.249634,457.352539 1004.668823,457.352539 
	C1004.668823,452.230225 1004.668823,447.360352 1004.668823,442.063110 
	C994.428833,442.063110 984.529785,442.063110 973.769531,442.063110 
	C985.559204,425.530151 996.856995,409.686890 1008.659241,393.136322 
	C994.126953,393.136322 980.813599,393.136322 966.500549,393.136261 
M420.176941,411.572479 
	C428.339691,405.068298 439.978210,406.254456 447.638672,416.855743 
	C452.631134,414.874878 457.685394,412.869507 462.768311,410.852753 
	C454.872681,395.565399 438.089722,388.719360 421.113953,393.638885 
	C405.708130,398.103455 395.513916,412.309967 396.664551,427.711243 
	C397.846313,443.529419 410.730530,457.162476 426.159576,458.920563 
	C443.105835,460.851501 457.743164,453.258331 462.064636,440.042572 
	C458.118927,438.413177 454.208252,436.583984 450.133850,435.257690 
	C449.036102,434.900360 447.034821,435.676300 446.138123,436.601013 
	C438.269012,444.715820 427.298615,445.895142 419.843170,439.240326 
	C412.164551,432.386292 412.049133,420.439545 420.176941,411.572479 
M620.986938,451.487518 
	C620.986938,449.060913 620.986938,446.634308 620.986938,444.325623 
	C616.087524,443.664764 609.921509,445.571198 609.459106,439.163666 
	C608.712463,428.816376 609.258301,418.375824 609.258301,407.421021 
	C613.327515,407.421021 617.231750,407.421021 621.088989,407.421021 
	C621.088989,401.977234 621.088989,397.097748 621.088989,391.771545 
	C616.775818,391.771545 612.846313,391.771545 608.430664,391.771545 
	C608.430664,385.905884 608.430664,380.497314 608.430664,374.969543 
	C602.487183,374.969543 597.045837,374.969543 590.976562,374.969543 
	C590.976562,380.722229 590.976562,386.265564 590.976562,391.741943 
	C588.097351,391.958527 585.848328,392.127716 583.727112,392.287292 
	C583.727112,397.595215 583.727112,402.471100 583.727112,407.393250 
	C586.299988,407.551819 588.433960,407.683350 591.131287,407.849579 
	C591.131287,409.781525 591.128601,411.569580 591.131775,413.357635 
	C591.149719,423.514679 591.002319,433.675629 591.238220,443.827637 
	C591.443909,452.677612 595.114014,457.216034 603.817017,458.458221 
	C609.287415,459.239014 614.959961,458.603729 620.985596,458.603729 
	C620.985596,456.367401 620.985596,454.400574 620.986938,451.487518 
M735.390198,413.808929 
	C740.324646,411.768890 745.259094,409.728882 750.762329,407.453705 
	C750.762329,403.200989 750.762329,397.788452 750.762329,392.060883 
	C742.408386,392.242126 735.063721,394.221954 729.176758,401.118500 
	C729.020386,397.842682 728.912292,395.578918 728.797058,393.166260 
	C723.001160,393.166260 717.553955,393.166260 711.952393,393.166260 
	C711.952393,414.632263 711.952393,435.962463 711.952393,457.284241 
	C717.802795,457.284241 723.234070,457.284241 729.010010,457.284241 
	C729.010010,447.696960 728.962891,438.403778 729.027527,429.111420 
	C729.066833,423.464020 730.293945,418.219208 735.390198,413.808929 
M861.177673,438.499542 
	C861.177673,415.430054 861.177673,392.360565 861.177673,369.277832 
	C855.053772,369.277832 849.635010,369.277832 844.180115,369.277832 
	C844.180115,398.752167 844.180115,427.946014 844.180115,457.248962 
	C849.963684,457.248962 855.379333,457.248962 861.177795,457.248962 
	C861.177795,451.121704 861.177795,445.310455 861.177673,438.499542 
M563.473511,457.429016 
	C565.559692,457.429016 567.645935,457.429016 569.733337,457.429016 
	C569.733337,427.549774 569.733337,398.385895 569.733337,369.298126 
	C563.929749,369.298126 558.509155,369.298126 553.141479,369.298126 
	C553.141479,398.779388 553.141479,427.959656 553.141479,457.429932 
	C556.516663,457.429932 559.499878,457.429932 563.473511,457.429016 
M322.297150,407.776184 
	C325.333405,406.077728 328.574982,404.659210 331.359192,402.617126 
	C335.866425,399.311249 338.078461,394.748383 336.584656,389.079346 
	C334.777954,382.222748 330.358307,377.789764 323.403534,376.159668 
	C317.682404,374.818695 313.248718,377.225220 309.917603,381.649994 
	C303.090637,390.718201 301.290985,401.501953 299.112335,413.753601 
	C307.261292,411.679718 314.415863,409.858948 322.297150,407.776184 
M251.635529,411.880432 
	C249.458542,411.069855 247.324249,410.109222 245.096909,409.475708 
	C236.997421,407.171844 230.593964,409.320679 227.257812,415.333557 
	C223.888718,421.405792 224.228546,429.101257 228.379807,434.151306 
	C232.911240,439.663910 239.143585,440.464691 245.145935,438.008484 
	C253.949280,434.406036 262.333374,429.779022 270.896088,425.588531 
	C270.872406,424.875549 270.848724,424.162567 270.825012,423.449554 
	C264.649658,419.715057 258.474304,415.980530 251.635529,411.880432 
M300.688721,447.079163 
	C302.131653,455.004761 304.344177,462.631989 309.613464,468.981903 
	C315.244232,475.767395 323.779999,475.945007 330.661804,469.496826 
	C337.413849,463.170288 337.914032,454.253296 331.554077,448.444977 
	C322.497620,440.174194 310.964478,438.567535 298.701233,436.377686 
	C299.383972,440.171783 299.932190,443.218353 300.688721,447.079163 
M245.722229,402.806244 
	C254.804306,408.741486 264.986420,410.985931 277.182526,412.616730 
	C274.146454,402.682281 271.974884,393.811584 268.670868,385.384918 
	C266.462189,379.751892 262.375397,375.062622 255.335220,374.958099 
	C248.624863,374.858459 242.326263,379.461060 239.764252,386.230255 
	C237.398224,392.481689 238.938034,397.074860 245.722229,402.806244 
M272.101776,477.234039 
	C275.130676,484.319153 282.500031,488.283875 289.784821,486.747498 
	C297.532135,485.113525 302.260925,480.273712 301.893280,473.185364 
	C301.247375,460.731201 294.259430,451.121796 286.575806,440.353546 
	C282.198914,447.952423 277.818878,454.262970 274.841644,461.177582 
	C272.835999,465.835724 272.811646,471.346954 272.101776,477.234039 
M297.312225,393.838776 
	C299.026398,389.894684 301.219055,386.080688 302.335846,381.974152 
	C303.791901,376.620087 304.137482,371.093719 299.604370,366.613037 
	C294.640381,361.706451 286.811310,360.598938 280.210175,363.911499 
	C274.294647,366.880035 271.688263,372.267822 273.270050,379.923340 
	C275.427002,390.362671 281.184509,399.044434 287.865997,408.164520 
	C291.137451,403.245148 294.049866,398.865692 297.312225,393.838776 
M274.693115,441.474182 
	C274.869537,439.764984 275.045959,438.055786 275.266357,435.920593 
	C263.522858,437.829224 252.443756,439.288605 243.285355,446.490631 
	C237.824478,450.784943 236.410126,456.707397 239.310867,462.924408 
	C242.035629,468.764313 246.580429,472.374329 253.084595,473.039520 
	C259.890991,473.735565 264.415192,469.691833 266.878845,464.276672 
	C270.080475,457.239349 272.027222,449.631073 274.693115,441.474182 
M337.769623,409.901337 
	C324.347870,409.674164 314.616058,417.571045 303.655060,424.735535 
	C312.480011,431.432159 320.697174,437.310730 330.757660,439.810608 
	C340.290619,442.179382 346.863159,438.398743 349.211609,429.518677 
	C351.616577,420.424957 347.451477,412.841064 337.769623,409.901337 
M294.785400,426.431183 
	C295.687500,421.778168 293.903320,418.484558 289.413635,417.154938 
	C285.620422,416.031525 282.506226,417.494568 280.650543,421.059387 
	C278.668365,424.867279 280.170349,429.377228 283.917908,431.289551 
	C287.985657,433.365295 291.629272,431.930298 294.785400,426.431183 
z"/>
<path fill="#676161" opacity="1.000000" stroke="none" 
	d="
M776.260681,394.155518 
	C787.996643,390.208801 798.771729,390.779480 808.806763,398.880035 
	C808.928406,396.832581 809.023193,395.237396 809.137146,393.319458 
	C814.722473,393.319458 820.281799,393.319458 826.027222,393.319458 
	C826.027222,414.565857 826.027222,435.796387 826.027222,457.302979 
	C820.350952,457.302979 814.931274,457.302979 809.300354,457.302979 
	C809.123535,455.622437 808.954224,454.013550 808.806274,452.607208 
	C804.671997,454.402985 800.664612,456.858704 796.317383,457.911438 
	C774.410767,463.216461 754.717896,446.593781 757.428406,420.803070 
	C758.694031,408.760468 764.559509,399.520447 776.260681,394.155518 
M807.350952,415.440918 
	C806.984314,414.886444 806.660889,414.296936 806.244507,413.782776 
	C800.590210,406.801392 790.669617,404.849274 782.828003,409.161102 
	C775.963135,412.935822 772.660645,422.396790 775.174866,431.085724 
	C777.602173,439.474243 784.958008,444.029541 794.562744,443.092163 
	C803.527649,442.217224 809.022217,436.570557 809.520691,426.808380 
	C809.700928,423.278534 808.376953,419.671906 807.350952,415.440918 
z"/>
<path fill="#676161" opacity="1.000000" stroke="none" 
	d="
M1024.414062,401.405273 
	C1043.063232,386.212952 1069.101318,390.148682 1079.411255,409.429199 
	C1083.099487,416.326691 1083.377930,423.701172 1082.658691,432.005707 
	C1074.142822,432.005707 1065.723145,432.005707 1057.303467,432.005707 
	C1049.025269,432.005707 1040.747192,432.005707 1032.459106,432.005707 
	C1032.772095,440.684265 1042.609253,443.994415 1050.931641,443.326416 
	C1055.252930,442.979553 1059.328125,439.991608 1063.605591,438.449432 
	C1065.157959,437.889771 1067.271729,437.416687 1068.614624,438.030487 
	C1072.210693,439.674072 1075.527954,441.927307 1079.258789,444.115967 
	C1075.627563,449.925262 1070.609741,453.514832 1064.840088,456.185669 
	C1045.302368,465.229767 1019.791870,454.294067 1015.580688,434.759247 
	C1012.933777,422.480743 1014.151489,410.830231 1024.414062,401.405273 
M1033.030273,417.108215 
	C1033.584595,418.011047 1034.126099,419.691467 1034.695435,419.700897 
	C1044.425171,419.862122 1054.158447,419.816650 1063.964722,419.816650 
	C1063.168457,413.747223 1058.982910,409.323730 1053.410767,408.075073 
	C1045.093750,406.211365 1037.704102,409.238831 1033.030273,417.108215 
z"/>
<path fill="#686262" opacity="1.000000" stroke="none" 
	d="
M921.242798,441.374725 
	C916.169861,453.890442 911.142212,466.011993 906.378662,478.236481 
	C905.298157,481.009216 903.955444,482.086151 900.960266,481.925232 
	C896.155151,481.667053 891.325989,481.856018 885.596985,481.856018 
	C888.707336,474.376465 891.400818,467.321442 894.578613,460.491821 
	C896.270691,456.855164 896.190002,453.852814 894.512634,450.191101 
	C886.488770,432.674652 878.755920,415.024841 870.936584,397.414886 
	C870.409729,396.228394 870.022644,394.979828 869.343689,393.148071 
	C875.553345,393.148071 881.317505,392.913574 887.036133,393.320404 
	C888.389282,393.416656 890.140503,395.438934 890.771301,396.963135 
	C895.280457,407.858093 899.542847,418.855194 903.897522,429.814301 
	C904.320801,430.879730 904.837769,431.907928 905.676270,433.759186 
	C909.926636,422.206757 914.317200,411.482513 917.744507,400.458801 
	C919.516479,394.758972 922.007507,392.212921 928.103088,393.042786 
	C932.012451,393.575012 936.053284,393.142609 940.851196,393.142609 
	C934.221069,409.447662 927.802429,425.232727 921.242798,441.374725 
z"/>
<path fill="#686262" opacity="1.000000" stroke="none" 
	d="
M677.109131,398.193298 
	C677.172241,396.411469 677.234253,395.106415 677.311707,393.477234 
	C683.050842,393.477234 688.608826,393.477234 694.507202,393.477234 
	C694.507202,414.620148 694.507202,435.684113 694.507202,457.169861 
	C689.029663,457.169861 683.468994,457.169861 677.545654,457.169861 
	C677.297363,455.979553 677.014038,454.621368 676.667114,452.958191 
	C675.934204,453.373535 675.366150,453.642822 674.853821,453.993469 
	C662.969360,462.127380 645.917908,460.096375 639.221252,449.322632 
	C637.102112,445.913391 635.393372,441.641296 635.269287,437.708130 
	C634.808228,423.095123 635.085449,408.458771 635.085449,393.485657 
	C640.654968,393.485657 646.212158,393.485657 652.432495,393.485657 
	C652.432495,397.360748 652.418030,401.305725 652.435364,405.250580 
	C652.476196,414.570923 652.290955,423.900818 652.662170,433.208313 
	C652.934814,440.043762 656.381775,443.323090 662.804810,444.004639 
	C669.498169,444.714905 674.402283,441.709991 676.215271,435.514343 
	C676.811218,433.477539 677.026794,431.268066 677.045837,429.134247 
	C677.136475,418.980133 677.099548,408.824921 677.109131,398.193298 
z"/>
<path fill="#686262" opacity="1.000000" stroke="none" 
	d="
M478.914795,447.940613 
	C477.737610,443.437866 475.951050,439.294373 475.837433,435.105499 
	C475.463867,421.334381 475.696899,407.546814 475.696899,393.455444 
	C481.402008,393.455444 486.953857,393.455444 493.076385,393.455444 
	C493.076385,402.027771 493.053467,410.467621 493.085052,418.907257 
	C493.103760,423.900787 492.928375,428.917572 493.346344,433.881287 
	C493.857849,439.956024 497.357056,443.266449 503.181702,443.974548 
	C509.709015,444.768097 514.887451,442.018707 516.673401,436.298767 
	C517.548584,433.495667 517.862488,430.424713 517.898010,427.468536 
	C518.033691,416.190887 517.952820,404.910645 517.952820,393.390259 
	C523.886475,393.390259 529.322327,393.390259 535.148682,393.390259 
	C535.148682,414.607025 535.148682,435.800873 535.148682,457.296326 
	C529.574463,457.296326 524.143921,457.296326 518.360413,457.296326 
	C518.153198,455.824493 517.934814,454.273468 517.683533,452.488708 
	C510.894501,457.849792 503.292267,459.915100 494.831543,458.471436 
	C488.136047,457.328949 482.532562,454.447601 478.914795,447.940613 
z"/>
<path fill="#696464" opacity="1.000000" stroke="none" 
	d="
M967.000366,393.136292 
	C980.813599,393.136322 994.126953,393.136322 1008.659241,393.136322 
	C996.856995,409.686890 985.559204,425.530151 973.769531,442.063110 
	C984.529785,442.063110 994.428833,442.063110 1004.668823,442.063110 
	C1004.668823,447.360352 1004.668823,452.230225 1004.668823,457.352539 
	C984.249634,457.352539 964.002991,457.352539 942.765442,457.352539 
	C954.378357,441.044220 965.586548,425.304321 977.393311,408.723877 
	C966.996338,408.723877 957.482361,408.723877 947.662109,408.723877 
	C947.662109,403.361572 947.662109,398.619965 947.662109,393.136261 
	C953.987488,393.136261 960.244019,393.136261 967.000366,393.136292 
z"/>
<path fill="#686262" opacity="1.000000" stroke="none" 
	d="
M419.878601,411.799133 
	C412.049133,420.439545 412.164551,432.386292 419.843170,439.240326 
	C427.298615,445.895142 438.269012,444.715820 446.138123,436.601013 
	C447.034821,435.676300 449.036102,434.900360 450.133850,435.257690 
	C454.208252,436.583984 458.118927,438.413177 462.064636,440.042572 
	C457.743164,453.258331 443.105835,460.851501 426.159576,458.920563 
	C410.730530,457.162476 397.846313,443.529419 396.664551,427.711243 
	C395.513916,412.309967 405.708130,398.103455 421.113953,393.638885 
	C438.089722,388.719360 454.872681,395.565399 462.768311,410.852753 
	C457.685394,412.869507 452.631134,414.874878 447.638672,416.855743 
	C439.978210,406.254456 428.339691,405.068298 419.878601,411.799133 
z"/>
<path fill="#696464" opacity="1.000000" stroke="none" 
	d="
M620.986267,451.960632 
	C620.985596,454.400574 620.985596,456.367401 620.985596,458.603729 
	C614.959961,458.603729 609.287415,459.239014 603.817017,458.458221 
	C595.114014,457.216034 591.443909,452.677612 591.238220,443.827637 
	C591.002319,433.675629 591.149719,423.514679 591.131775,413.357635 
	C591.128601,411.569580 591.131287,409.781525 591.131287,407.849579 
	C588.433960,407.683350 586.299988,407.551819 583.727112,407.393250 
	C583.727112,402.471100 583.727112,397.595215 583.727112,392.287292 
	C585.848328,392.127716 588.097351,391.958527 590.976562,391.741943 
	C590.976562,386.265564 590.976562,380.722229 590.976562,374.969543 
	C597.045837,374.969543 602.487183,374.969543 608.430664,374.969543 
	C608.430664,380.497314 608.430664,385.905884 608.430664,391.771545 
	C612.846313,391.771545 616.775818,391.771545 621.088989,391.771545 
	C621.088989,397.097748 621.088989,401.977234 621.088989,407.421021 
	C617.231750,407.421021 613.327515,407.421021 609.258301,407.421021 
	C609.258301,418.375824 608.712463,428.816376 609.459106,439.163666 
	C609.921509,445.571198 616.087524,443.664764 620.986938,444.325623 
	C620.986938,446.634308 620.986938,449.060913 620.986267,451.960632 
z"/>
<path fill="#676161" opacity="1.000000" stroke="none" 
	d="
M735.123413,414.066071 
	C730.293945,418.219208 729.066833,423.464020 729.027527,429.111420 
	C728.962891,438.403778 729.010010,447.696960 729.010010,457.284241 
	C723.234070,457.284241 717.802795,457.284241 711.952393,457.284241 
	C711.952393,435.962463 711.952393,414.632263 711.952393,393.166260 
	C717.553955,393.166260 723.001160,393.166260 728.797058,393.166260 
	C728.912292,395.578918 729.020386,397.842682 729.176758,401.118500 
	C735.063721,394.221954 742.408386,392.242126 750.762329,392.060883 
	C750.762329,397.788452 750.762329,403.200989 750.762329,407.453705 
	C745.259094,409.728882 740.324646,411.768890 735.123413,414.066071 
z"/>
<path fill="#656060" opacity="1.000000" stroke="none" 
	d="
M861.177734,438.999390 
	C861.177795,445.310455 861.177795,451.121704 861.177795,457.248962 
	C855.379333,457.248962 849.963684,457.248962 844.180115,457.248962 
	C844.180115,427.946014 844.180115,398.752167 844.180115,369.277832 
	C849.635010,369.277832 855.053772,369.277832 861.177673,369.277832 
	C861.177673,392.360565 861.177673,415.430054 861.177734,438.999390 
z"/>
<path fill="#656060" opacity="1.000000" stroke="none" 
	d="
M562.978333,457.429474 
	C559.499878,457.429932 556.516663,457.429932 553.141479,457.429932 
	C553.141479,427.959656 553.141479,398.779388 553.141479,369.298126 
	C558.509155,369.298126 563.929749,369.298126 569.733337,369.298126 
	C569.733337,398.385895 569.733337,427.549774 569.733337,457.429016 
	C567.645935,457.429016 565.559692,457.429016 562.978333,457.429474 
z"/>
<path fill="#1ED9A5" opacity="1.000000" stroke="none" 
	d="
M321.933777,407.907166 
	C314.415863,409.858948 307.261292,411.679718 299.112335,413.753601 
	C301.290985,401.501953 303.090637,390.718201 309.917603,381.649994 
	C313.248718,377.225220 317.682404,374.818695 323.403534,376.159668 
	C330.358307,377.789764 334.777954,382.222748 336.584656,389.079346 
	C338.078461,394.748383 335.866425,399.311249 331.359192,402.617126 
	C328.574982,404.659210 325.333405,406.077728 321.933777,407.907166 
z"/>
<path fill="#1ED9A5" opacity="1.000000" stroke="none" 
	d="
M251.967224,412.063232 
	C258.474304,415.980530 264.649658,419.715057 270.825012,423.449554 
	C270.848724,424.162567 270.872406,424.875549 270.896088,425.588531 
	C262.333374,429.779022 253.949280,434.406036 245.145935,438.008484 
	C239.143585,440.464691 232.911240,439.663910 228.379807,434.151306 
	C224.228546,429.101257 223.888718,421.405792 227.257812,415.333557 
	C230.593964,409.320679 236.997421,407.171844 245.096909,409.475708 
	C247.324249,410.109222 249.458542,411.069855 251.967224,412.063232 
z"/>
<path fill="#1ED9A5" opacity="1.000000" stroke="none" 
	d="
M300.584564,446.672058 
	C299.932190,443.218353 299.383972,440.171783 298.701233,436.377686 
	C310.964478,438.567535 322.497620,440.174194 331.554077,448.444977 
	C337.914032,454.253296 337.413849,463.170288 330.661804,469.496826 
	C323.779999,475.945007 315.244232,475.767395 309.613464,468.981903 
	C304.344177,462.631989 302.131653,455.004761 300.584564,446.672058 
z"/>
<path fill="#1ED9A5" opacity="1.000000" stroke="none" 
	d="
M245.444275,402.575256 
	C238.938034,397.074860 237.398224,392.481689 239.764252,386.230255 
	C242.326263,379.461060 248.624863,374.858459 255.335220,374.958099 
	C262.375397,375.062622 266.462189,379.751892 268.670868,385.384918 
	C271.974884,393.811584 274.146454,402.682281 277.182526,412.616730 
	C264.986420,410.985931 254.804306,408.741486 245.444275,402.575256 
z"/>
<path fill="#1ED9A5" opacity="1.000000" stroke="none" 
	d="
M272.001373,476.855286 
	C272.811646,471.346954 272.835999,465.835724 274.841644,461.177582 
	C277.818878,454.262970 282.198914,447.952423 286.575806,440.353546 
	C294.259430,451.121796 301.247375,460.731201 301.893280,473.185364 
	C302.260925,480.273712 297.532135,485.113525 289.784821,486.747498 
	C282.500031,488.283875 275.130676,484.319153 272.001373,476.855286 
z"/>
<path fill="#1ED9A5" opacity="1.000000" stroke="none" 
	d="
M297.137268,394.162476 
	C294.049866,398.865692 291.137451,403.245148 287.865997,408.164520 
	C281.184509,399.044434 275.427002,390.362671 273.270050,379.923340 
	C271.688263,372.267822 274.294647,366.880035 280.210175,363.911499 
	C286.811310,360.598938 294.640381,361.706451 299.604370,366.613037 
	C304.137482,371.093719 303.791901,376.620087 302.335846,381.974152 
	C301.219055,386.080688 299.026398,389.894684 297.137268,394.162476 
z"/>
<path fill="#1ED9A5" opacity="1.000000" stroke="none" 
	d="
M274.603607,441.871368 
	C272.027222,449.631073 270.080475,457.239349 266.878845,464.276672 
	C264.415192,469.691833 259.890991,473.735565 253.084595,473.039520 
	C246.580429,472.374329 242.035629,468.764313 239.310867,462.924408 
	C236.410126,456.707397 237.824478,450.784943 243.285355,446.490631 
	C252.443756,439.288605 263.522858,437.829224 275.266357,435.920593 
	C275.045959,438.055786 274.869537,439.764984 274.603607,441.871368 
z"/>
<path fill="#32D4A6" opacity="1.000000" stroke="none" 
	d="
M338.148499,409.983032 
	C347.451477,412.841064 351.616577,420.424957 349.211609,429.518677 
	C346.863159,438.398743 340.290619,442.179382 330.757660,439.810608 
	C320.697174,437.310730 312.480011,431.432159 303.655060,424.735535 
	C314.616058,417.571045 324.347870,409.674164 338.148499,409.983032 
M334.364075,438.011169 
	C336.277924,437.133636 338.160278,436.177765 340.111481,435.393066 
	C346.230103,432.932556 348.664581,430.178070 347.835541,424.438965 
	C347.242676,420.334930 347.528198,414.644043 340.621185,414.831238 
	C340.092377,414.845551 339.588043,414.003845 338.998932,413.859558 
	C336.405487,413.224121 333.522156,411.721252 331.229492,412.337982 
	C326.544373,413.598236 322.048584,415.782928 317.709167,418.037933 
	C314.244019,419.838654 311.126038,422.307434 307.026123,425.029236 
	C311.595215,427.608307 315.369720,429.072235 318.292694,431.543396 
	C322.792267,435.347504 327.710999,437.535004 334.364075,438.011169 
z"/>
<path fill="#1ED9A5" opacity="1.000000" stroke="none" 
	d="
M294.666626,426.767120 
	C291.629272,431.930298 287.985657,433.365295 283.917908,431.289551 
	C280.170349,429.377228 278.668365,424.867279 280.650543,421.059387 
	C282.506226,417.494568 285.620422,416.031525 289.413635,417.154938 
	C293.903320,418.484558 295.687500,421.778168 294.666626,426.767120 
z"/>
<path fill="#FDFDFD" opacity="1.000000" stroke="none" 
	d="
M807.545166,415.770630 
	C808.376953,419.671906 809.700928,423.278534 809.520691,426.808380 
	C809.022217,436.570557 803.527649,442.217224 794.562744,443.092163 
	C784.958008,444.029541 777.602173,439.474243 775.174866,431.085724 
	C772.660645,422.396790 775.963135,412.935822 782.828003,409.161102 
	C790.669617,404.849274 800.590210,406.801392 806.244507,413.782776 
	C806.660889,414.296936 806.984314,414.886444 807.545166,415.770630 
z"/>
<path fill="#FDFDFD" opacity="1.000000" stroke="none" 
	d="
M1033.144775,416.719666 
	C1037.704102,409.238831 1045.093750,406.211365 1053.410767,408.075073 
	C1058.982910,409.323730 1063.168457,413.747223 1063.964722,419.816650 
	C1054.158447,419.816650 1044.425171,419.862122 1034.695435,419.700897 
	C1034.126099,419.691467 1033.584595,418.011047 1033.144775,416.719666 
z"/>
<path fill="#16DBA5" opacity="1.000000" stroke="none" 
	d="
M333.929413,438.010468 
	C327.710999,437.535004 322.792267,435.347504 318.292694,431.543396 
	C315.369720,429.072235 311.595215,427.608307 307.026123,425.029236 
	C311.126038,422.307434 314.244019,419.838654 317.709167,418.037933 
	C322.048584,415.782928 326.544373,413.598236 331.229492,412.337982 
	C333.522156,411.721252 336.405487,413.224121 338.998932,413.859558 
	C339.588043,414.003845 340.092377,414.845551 340.621185,414.831238 
	C347.528198,414.644043 347.242676,420.334930 347.835541,424.438965 
	C348.664581,430.178070 346.230103,432.932556 340.111481,435.393066 
	C338.160278,436.177765 336.277924,437.133636 333.929413,438.010468 
z"/>
</svg>